<?xml version="1.0" standalone="no"?>
<!DOCTYPE svg PUBLIC "-//W3C//DTD SVG 20010904//EN"
 "http://www.w3.org/TR/2001/REC-SVG-20010904/DTD/svg10.dtd">
<svg version="1.0" xmlns="http://www.w3.org/2000/svg"
 width="1200.000000pt" height="1200.000000pt" viewBox="0 0 1200.000000 1200.000000"
 preserveAspectRatio="xMidYMid meet">
<metadata>
Created by potrace 1.14, written by Peter Selinger 2001-2017
</metadata>
<g transform="translate(0.000000,1200.000000) scale(0.100000,-0.100000)"
fill="#000000" stroke="none">
<path d="M4450 6000 c0 -1383 0 -1390 20 -1390 20 0 20 7 20 1390 0 1383 0
1390 -20 1390 -20 0 -20 -7 -20 -1390z"/>
<path d="M2381 6989 c-83 -14 -185 -53 -264 -100 -86 -50 -218 -180 -266 -262
-91 -155 -124 -367 -82 -540 50 -208 187 -388 372 -487 l59 -31 0 -263 0 -263
31 -61 c33 -67 87 -119 160 -151 55 -26 175 -28 242 -5 63 21 140 93 172 159
l26 53 0 266 0 266 51 26 c244 124 399 377 399 654 0 130 -24 229 -82 343 -34
65 -63 102 -138 177 -108 107 -201 163 -331 200 -86 25 -264 35 -349 19z m99
-144 l0 -76 -27 20 c-70 51 -175 25 -220 -55 -76 -133 69 -284 205 -215 l42
21 0 -125 0 -125 -143 0 c-156 0 -179 -7 -191 -56 -5 -18 0 -38 19 -69 32 -55
32 -89 0 -120 -34 -35 -78 -33 -116 4 -35 36 -36 54 -4 106 30 50 31 82 3 112
-20 21 -30 23 -120 23 l-98 0 0 33 c0 93 68 254 148 350 113 136 315 243 465
246 l37 1 0 -75z m219 55 c179 -50 329 -164 420 -319 37 -62 76 -175 85 -243
l6 -48 -90 0 -89 0 21 35 c16 28 19 47 16 86 -6 63 -31 97 -91 127 -63 32
-115 24 -169 -27 -61 -56 -71 -148 -22 -202 17 -18 13 -19 -109 -19 l-127 0 0
143 c0 167 -7 187 -69 187 -25 0 -44 -7 -56 -20 -25 -27 -82 -27 -112 2 -33
31 -32 90 3 117 36 28 73 26 115 -4 37 -28 69 -27 102 2 14 13 17 33 17 110
l0 93 38 0 c20 0 70 -9 111 -20z m262 -433 c19 -15 39 -50 39 -70 0 -8 -11
-31 -25 -51 -30 -45 -32 -79 -5 -106 18 -18 33 -20 131 -20 l111 0 -6 -47
c-31 -219 -170 -417 -360 -513 -84 -42 -86 -45 -86 -106 l0 -54 -105 0 -105 0
0 125 c0 69 2 125 5 125 2 0 19 -9 37 -20 45 -27 120 -27 165 1 47 29 77 90
70 147 -13 113 -129 174 -232 122 -22 -11 -41 -20 -42 -20 -2 0 -3 54 -3 120
l0 120 144 0 145 0 21 27 c24 31 21 61 -11 101 -26 34 -24 78 6 107 27 27 79
33 106 12z m-986 -283 c-78 -114 37 -270 171 -233 107 30 151 151 89 245 l-15
24 130 0 130 0 0 -134 c0 -120 2 -136 21 -160 23 -30 78 -36 99 -12 6 8 27 20
45 26 93 31 152 -92 70 -146 -30 -20 -75 -14 -112 16 -34 27 -69 25 -98 -5
-24 -23 -25 -29 -25 -165 l0 -140 -105 0 -105 0 0 59 0 60 -82 43 c-188 97
-329 292 -356 492 l-9 66 88 0 88 0 -24 -36z m785 -824 l0 -60 -245 0 -245 0
0 60 0 60 245 0 245 0 0 -60z m0 -195 l0 -65 -242 2 -243 3 -3 63 -3 62 246 0
245 0 0 -65z m-24 -162 c-21 -40 -75 -90 -118 -107 -109 -46 -265 2 -314 96
-8 15 -14 29 -14 33 0 3 104 5 230 5 l231 0 -15 -27z"/>
<path d="M8975 6760 c-16 -4 -74 -8 -127 -9 -91 -1 -98 -2 -98 -21 0 -15 7
-20 26 -20 38 0 64 -18 80 -55 11 -28 14 -124 14 -524 0 -338 -3 -498 -11
-514 -13 -28 -48 -47 -84 -47 -17 0 -25 -6 -25 -18 0 -17 14 -18 195 -18 181
0 195 1 195 18 0 12 -8 18 -25 18 -36 0 -71 19 -84 47 -8 17 -11 196 -11 588
0 311 -3 564 -7 564 -5 -1 -21 -5 -38 -9z"/>
<path d="M9230 6630 c0 -14 7 -20 24 -20 41 0 83 -20 95 -46 15 -35 16 -913 0
-947 -13 -29 -48 -47 -89 -47 -23 0 -30 -5 -30 -19 0 -17 12 -18 205 -18 187
0 205 2 205 17 0 13 -11 19 -41 23 -23 3 -51 15 -63 27 -21 20 -21 29 -24 468
-2 298 0 459 8 484 11 38 45 58 96 58 17 0 24 6 24 20 0 19 -7 20 -205 20
-198 0 -205 -1 -205 -20z"/>
<path d="M5460 6625 c0 -10 14 -17 41 -21 22 -4 50 -15 62 -24 l22 -18 0 -477
0 -477 -22 -18 c-12 -9 -40 -20 -62 -24 -27 -4 -41 -11 -41 -21 0 -13 54 -15
410 -15 l410 0 -3 165 c-2 150 -4 165 -19 165 -10 0 -18 -1 -18 -2 -12 -86
-34 -168 -54 -202 -39 -67 -76 -80 -235 -84 -73 -2 -144 -1 -158 3 -52 13 -54
35 -51 531 3 455 3 456 25 474 12 9 40 20 62 24 27 4 41 11 41 21 0 13 -30 15
-205 15 -175 0 -205 -2 -205 -15z"/>
<path d="M9960 6599 c-14 -4 -44 -7 -67 -8 l-42 -1 -3 -122 -3 -123 -72 -3
c-55 -2 -73 -6 -73 -17 0 -11 18 -15 73 -17 l72 -3 5 -330 c5 -322 6 -331 28
-370 33 -58 79 -86 151 -92 116 -11 191 43 226 161 12 39 12 51 3 58 -22 13
-26 9 -43 -42 -39 -117 -140 -156 -199 -76 -20 26 -21 42 -24 362 l-3 334 120
0 c100 0 121 3 121 15 0 12 -22 15 -117 17 l-118 3 -5 130 -5 131 -25 -7z"/>
<path d="M7760 6354 c-25 -14 -53 -35 -62 -47 -16 -20 -18 -21 -35 -5 -41 37
-113 60 -191 60 -94 0 -147 -13 -199 -51 -59 -42 -85 -104 -85 -196 0 -124 59
-208 169 -238 l41 -11 -46 -33 c-86 -61 -116 -150 -71 -207 33 -41 60 -48 234
-56 165 -7 195 -14 227 -54 22 -26 23 -97 3 -136 -36 -70 -136 -111 -271 -111
-103 -1 -179 24 -214 69 -38 47 -17 162 32 178 20 6 22 13 10 32 -11 17 -124
-40 -147 -74 -40 -62 -23 -145 39 -183 119 -73 364 -77 508 -9 116 54 172 130
172 233 1 82 -23 121 -97 159 -55 28 -64 30 -220 34 -89 2 -170 9 -179 14 -23
11 -23 47 0 74 32 39 78 63 140 73 80 13 124 34 166 81 57 63 71 156 40 259
l-15 53 28 30 c15 16 36 34 45 39 15 8 16 4 11 -40 -5 -41 -2 -52 16 -70 52
-52 131 -9 131 71 0 85 -87 115 -180 62z m-246 -36 c46 -20 70 -90 71 -198 0
-157 -37 -220 -130 -220 -27 0 -44 8 -65 28 -36 37 -50 88 -50 187 0 99 14
150 50 187 31 31 79 37 124 16z"/>
<path d="M6694 6360 c-137 -20 -238 -120 -279 -277 -19 -70 -22 -241 -5 -303
29 -109 86 -184 172 -230 54 -29 75 -35 151 -38 99 -5 146 8 217 59 44 32 100
111 100 141 0 34 -35 18 -65 -30 -57 -89 -185 -128 -274 -82 -52 26 -106 92
-131 158 -22 59 -37 184 -26 226 l6 26 245 0 245 0 0 28 c0 57 -22 148 -48
196 -54 99 -169 146 -308 126z m126 -68 c43 -43 70 -118 70 -194 l0 -48 -166
0 -167 0 7 53 c17 127 98 227 185 227 25 0 42 -9 71 -38z"/>
<path d="M8258 6359 c-129 -19 -228 -92 -228 -168 0 -75 72 -121 138 -87 34
17 42 33 42 83 0 25 -8 43 -31 66 -29 29 -30 31 -13 44 70 51 209 37 246 -25
19 -33 32 -165 20 -207 -10 -34 -52 -66 -120 -91 -255 -93 -316 -145 -316
-268 1 -126 65 -186 200 -186 84 0 141 24 200 81 l41 40 6 -29 c3 -16 17 -42
30 -57 42 -49 164 -46 226 5 19 16 21 23 11 35 -11 13 -15 13 -33 0 -26 -18
-73 -20 -84 -2 -4 6 -10 149 -13 317 l-5 305 -27 46 c-15 25 -37 53 -50 61
-54 35 -152 50 -240 37z m182 -505 c0 -159 -10 -186 -89 -235 -52 -33 -122
-39 -159 -13 -72 50 -68 191 7 259 19 16 213 119 234 124 4 0 7 -60 7 -135z"/>
</g>
</svg>
